<svg width="90" height="90" viewBox="0 0 90 90" fill="none" xmlns="http://www.w3.org/2000/svg">
<rect y="0.00012207" width="90" height="90" rx="20" fill="#C7FF90"/>
<g clip-path="url(#clip0_182:984)">
<path d="M44.5001 25.9675C45.1577 25.9675 45.6957 25.4295 45.6957 24.7719V24.174C45.6957 23.5164 45.1577 22.9784 44.5001 22.9784C43.8425 22.9784 43.3044 23.5164 43.3044 24.174V24.7719C43.3044 25.4295 43.8425 25.9675 44.5001 25.9675Z" fill="#43BA41"/>
<path d="M44.5001 63.0327C43.8425 63.0327 43.3044 63.5708 43.3044 64.2284V64.8262C43.3044 65.4838 43.8425 66.0218 44.5001 66.0218C45.1577 66.0218 45.6957 65.4838 45.6957 64.8262V64.2284C45.6957 63.5708 45.1577 63.0327 44.5001 63.0327Z" fill="#43BA41"/>
<path d="M24.7717 43.3044H24.1739C23.5163 43.3044 22.9783 43.8425 22.9783 44.5001C22.9783 45.1577 23.5163 45.6957 24.1739 45.6957H24.7717C25.4294 45.6957 25.9674 45.1577 25.9674 44.5001C25.9674 43.8425 25.4294 43.3044 24.7717 43.3044Z" fill="#43BA41"/>
<path d="M64.8262 43.3044H64.2284C63.5708 43.3044 63.0327 43.8425 63.0327 44.5001C63.0327 45.1577 63.5708 45.6957 64.2284 45.6957H64.8262C65.4838 45.6957 66.0218 45.1577 66.0218 44.5001C66.0218 43.8425 65.4838 43.3044 64.8262 43.3044Z" fill="#43BA41"/>
<path d="M30.9892 29.3154C30.5109 28.8371 29.7935 28.8371 29.3152 29.3154C28.837 29.7936 28.837 30.511 29.3152 30.9893L29.7337 31.4078C29.9728 31.6469 30.2718 31.7664 30.5707 31.7664C30.8696 31.7664 31.1685 31.6469 31.4076 31.4078C31.8859 30.9295 31.8859 30.2121 31.4076 29.7338L30.9892 29.3154Z" fill="#43BA41"/>
<path d="M29.7337 57.5925L29.3152 58.0109C28.837 58.4892 28.837 59.2066 29.3152 59.6849C29.5544 59.924 29.8533 60.0435 30.1522 60.0435C30.4511 60.0435 30.75 59.924 30.9892 59.6849L31.4076 59.2664C31.8859 58.7881 31.8859 58.0707 31.4076 57.5925C30.9294 57.1142 30.212 57.1142 29.7337 57.5925Z" fill="#43BA41"/>
<path d="M58.0108 29.3154L57.5923 29.7338C57.1141 30.2121 57.1141 30.9295 57.5923 31.4078C57.8315 31.6469 58.1304 31.7664 58.4293 31.7664C58.7282 31.7664 59.0271 31.6469 59.2663 31.4078L59.6847 30.9893C60.163 30.511 60.163 29.7936 59.6847 29.3154C59.2065 28.8371 58.4891 28.8371 58.0108 29.3154Z" fill="#43BA41"/>
<path d="M45.6957 44.0219V33.1415C45.6957 32.4838 45.1577 31.9458 44.5001 31.9458C43.8425 31.9458 43.3044 32.4838 43.3044 33.1415V44.5001C43.3044 44.7991 43.424 45.098 43.6631 45.3371L56.7555 58.4295C56.9946 58.6686 57.2936 58.7882 57.5925 58.7882C57.8914 58.7882 58.1903 58.6686 58.4294 58.4295C58.9077 57.9512 58.9077 57.2338 58.4294 56.7556L45.6957 44.0219Z" fill="#43BA41"/>
<path d="M44.5 17.0001C29.3152 17.0001 17 29.3153 17 44.5001C17 59.6849 29.3152 72.0001 44.5 72.0001C59.6848 72.0001 72 59.6849 72 44.5001C72 29.3153 59.6848 17.0001 44.5 17.0001ZM44.5 69.6088C30.6304 69.6088 19.3913 58.3697 19.3913 44.5001C19.3913 30.6306 30.6304 19.3914 44.5 19.3914C58.3696 19.3914 69.6087 30.6306 69.6087 44.5001C69.6087 58.3697 58.3696 69.6088 44.5 69.6088Z" fill="#43BA41"/>
</g>
<defs>
<clipPath id="clip0_182:984">
<rect width="55" height="55" fill="white" transform="translate(17 17.0001)"/>
</clipPath>
</defs>
</svg>
