<svg width="90" height="90" viewBox="0 0 90 90" fill="none" xmlns="http://www.w3.org/2000/svg">
<rect y="0.00012207" width="90" height="90" rx="20" fill="#FFEDAB"/>
<g clip-path="url(#clip0_182:1001)">
<path d="M68.8912 25.4219C69.2146 24.6015 69.3789 23.7349 69.3789 22.8363V21.5489C69.3789 21.1934 69.0904 20.9052 68.7344 20.9052H67.4453C66.2652 20.9052 65.1312 21.1894 64.1122 21.734C63.6072 19.1751 61.5343 17.2592 61.4342 17.1682C61.1882 16.9441 60.8117 16.9441 60.5656 17.1682C60.4656 17.2592 58.3928 19.1751 57.8876 21.734C56.8686 21.1894 55.7346 20.9052 54.5547 20.9052H53.2656C52.9096 20.9052 52.6211 21.1934 52.6211 21.5489V22.8363C52.6211 23.7349 52.7852 24.6015 53.1088 25.4219C51.4013 26.2205 50.2386 27.4751 50.1683 27.5522C49.9439 27.7981 49.9439 28.1741 50.1683 28.4198C50.2722 28.5335 52.7471 31.2045 55.8437 31.2045C56.8025 31.2045 57.6974 30.9486 58.4796 30.5917C58.7232 32.0115 59.702 33.059 60.57 33.8357C60.6923 33.9453 60.8463 34.0001 61 34.0001C61.1539 34.0001 61.3078 33.9453 61.4302 33.8357C62.2981 33.059 63.2768 32.0115 63.5206 30.5917C64.3026 30.9486 65.1975 31.2045 66.1563 31.2045C69.2529 31.2045 71.728 28.5335 71.8317 28.4198C72.0561 28.1741 72.0561 27.7981 71.8317 27.5522C71.7612 27.4751 70.5987 26.2205 68.8912 25.4219ZM68.0899 22.1926V22.8363C68.0899 23.5806 67.9526 24.2979 67.6818 24.9758C67.1973 24.8456 66.6858 24.7675 66.1563 24.7675C65.2618 24.7675 64.4229 24.9904 63.6793 25.3101C63.9585 24.6625 64.1634 23.9427 64.2114 23.1768C65.1682 22.5326 66.2788 22.1926 67.4453 22.1926H68.0899ZM61.0008 18.5711C63.2198 21.0568 62.8952 22.9269 62.9281 23.0395C62.8411 24.796 61.6553 26.3409 60.999 27.0669C60.3424 26.3427 59.1584 24.803 59.0719 23.0397C59.0996 22.9441 58.7829 21.0641 61.0008 18.5711ZM53.9101 22.8363V22.1926H54.5547C55.7212 22.1926 56.8318 22.5324 57.7884 23.1768C57.8364 23.9427 58.0415 24.6625 58.3205 25.3101C57.5769 24.9904 56.7382 24.7675 55.8437 24.7675C55.314 24.7675 54.8027 24.8456 54.3182 24.9758C54.0474 24.2979 53.9101 23.5806 53.9101 22.8363ZM51.5729 27.9852C52.7344 26.951 54.2873 26.0549 55.8437 26.0549C57.6859 26.0549 59.3244 27.3061 60.0795 27.987C58.9321 29.0251 57.3896 29.9171 55.8437 29.9171C54.0019 29.9171 52.3421 28.6678 51.5729 27.9852ZM62.2891 29.9171C62.2891 30.7724 61.8876 31.5747 61 32.4696C60.1123 31.5747 59.7109 30.7725 59.7109 29.9171C59.7109 29.9123 59.7113 29.9076 59.7113 29.9027C60.2546 29.542 60.6944 29.173 61 28.8922C61.3055 29.173 61.7454 29.542 62.2886 29.9027C62.2887 29.9076 62.2891 29.9123 62.2891 29.9171ZM66.1563 29.9171C64.314 29.9171 62.6753 28.6656 61.9203 27.985C62.6731 27.3041 64.3061 26.0549 66.1563 26.0549C66.7246 26.0549 67.2755 26.1741 67.7882 26.3586C67.803 26.3647 67.8178 26.37 67.8326 26.3749C68.9618 26.7913 69.9018 27.5208 70.427 27.987C69.6599 28.6699 68.0056 29.9171 66.1563 29.9171Z" fill="#F5A13F"/>
<path d="M68.8365 38.1629C67.7195 38.8905 66.678 39.4557 65.7419 39.8437C63.4945 40.7734 62.1457 40.571 61.221 40.2903C60.4958 40.0697 59.8374 39.7024 59.1394 39.3135C57.8061 38.5694 56.4243 37.8016 54.5276 38.0466C53.4116 38.1915 52.9425 38.6699 52.5997 39.0189C52.4934 39.1277 52.4014 39.2215 52.2984 39.298C51.9675 39.544 51.902 40.0073 52.1513 40.3331C52.4007 40.6582 52.8702 40.7236 53.2019 40.478C53.398 40.3317 53.5471 40.1798 53.6785 40.0461C53.9576 39.7612 54.1264 39.5899 54.7229 39.5127C56.1254 39.3297 57.1799 39.9193 58.4008 40.5995C59.1372 41.0103 59.8985 41.4351 60.7788 41.7023C61.4303 41.9004 62.0891 42.0001 62.77 42.0001C63.8759 42.0001 65.0399 41.7371 66.3226 41.2062C67.3452 40.7828 68.4691 40.174 69.6634 39.3967C70.0091 39.1715 70.1039 38.7128 69.8756 38.3729C69.6471 38.0318 69.1815 37.9391 68.8365 38.1629Z" fill="#F5A13F"/>
<path d="M53.2021 36.4779C53.3982 36.3316 53.5474 36.1796 53.6787 36.0459C53.9581 35.761 54.1264 35.589 54.7231 35.5122C56.1254 35.3294 57.1799 35.9187 58.4008 36.5995C59.1373 37.0104 59.8985 37.4353 60.779 37.7026C61.4299 37.9003 62.0887 38.0001 62.7694 38.0001C63.8752 38.0001 65.0395 37.7369 66.3226 37.2058C67.3452 36.7823 68.4691 36.1737 69.6634 35.3961C70.0091 35.1711 70.1039 34.7126 69.8756 34.3721C69.6477 34.0318 69.1831 33.9383 68.8365 34.163C67.7195 34.8907 66.6782 35.4557 65.7418 35.8438C63.4934 36.7746 62.1454 36.5721 61.221 36.291C60.4959 36.0703 59.8373 35.7029 59.1395 35.3139C57.8061 34.5695 56.4288 33.8016 54.5277 34.0466C53.4117 34.1911 52.9426 34.67 52.5999 35.0192C52.4933 35.128 52.4014 35.2222 52.2983 35.2983C51.9676 35.5445 51.9019 36.0078 52.1513 36.3337C52.401 36.6582 52.8705 36.7237 53.2021 36.4779Z" fill="#F5A13F"/>
<path d="M52.2359 56.612L47.452 55.5078L42.8752 52.8927V49.3755C44.0876 48.0936 44.8342 46.4416 44.9951 44.6845H45.7503C46.3604 44.6856 46.955 44.4922 47.4478 44.1324C47.9406 43.7726 48.3059 43.2651 48.4906 42.6836C48.6754 42.1021 48.67 41.4768 48.4752 40.8985C48.2805 40.3203 47.9065 39.8192 47.4076 39.4679C47.9087 36.9116 48.7013 30.5965 45.1326 27.5951C42.4773 25.3644 38.0678 25.4733 32.022 27.9236C31.3271 27.7821 30.6108 27.7811 29.9155 27.9205C29.2201 28.06 28.5597 28.3372 27.9731 28.7358C26.8921 29.5835 26.3439 30.9474 26.3439 32.7891V39.9278C25.9779 40.3413 25.7393 40.8518 25.6571 41.3979C25.5749 41.9439 25.6524 42.502 25.8804 43.005C26.1084 43.5079 26.477 43.9341 26.9419 44.2321C27.4068 44.5302 27.9479 44.6873 28.5001 44.6845H29.2553C29.4162 46.4416 30.1628 48.0936 31.3751 49.3755V52.8927L26.7987 55.5078L22.0145 56.6122C20.5865 56.9361 19.3116 57.737 18.4 58.8828C17.4884 60.0287 16.9946 61.451 17 62.9152V71.2785C17 71.4691 17.0758 71.6519 17.2106 71.7867C17.3454 71.9215 17.5282 71.9972 17.7188 71.9972H56.5316C56.7222 71.9972 56.905 71.9215 57.0398 71.7867C57.1746 71.6519 57.2503 71.4691 57.2503 71.2785V62.9152C57.2557 61.451 56.7619 60.0287 55.8503 58.8828C54.9387 57.7369 53.6638 56.936 52.2359 56.612ZM36.1549 65.5284H38.0955L40.3316 70.5597H33.9185L36.1549 65.5284ZM38.0762 64.0909H36.1743L34.9827 61.1117L37.1252 59.8874L39.2677 61.1117L38.0762 64.0909ZM37.1252 51.8721C38.6557 51.8706 40.1532 51.4273 41.4377 50.5953V53.039L37.1252 57.9678L32.8127 53.0393V50.5956C34.0985 51.4247 35.5952 51.8677 37.1252 51.8721ZM38.2447 58.8715L42.3102 54.2256L46.0682 56.3727L42.0027 61.0187L38.2447 58.8715ZM45.7503 43.247H45.0315V40.372H45.7503C46.1315 40.372 46.4971 40.5234 46.7667 40.793C47.0363 41.0626 47.1878 41.4282 47.1878 41.8095C47.1878 42.1907 47.0363 42.5564 46.7667 42.826C46.4971 43.0956 46.1315 43.247 45.7503 43.247ZM27.7814 32.7891C27.7814 31.4148 28.1425 30.4335 28.8546 29.871C29.4512 29.4489 30.1707 29.2363 30.9008 29.2663C31.2438 29.2652 31.586 29.2993 31.922 29.3681C32.0702 29.4045 32.226 29.3929 32.3671 29.3351C37.9813 27.0258 41.9646 26.8111 44.2072 28.6954C47.0935 31.122 46.5001 36.4965 46.0442 38.9496C45.8314 38.9273 45.2655 38.9345 45.0315 38.9345V35.3407C45.0367 35.1896 44.9907 35.0411 44.9011 34.9194C44.8114 34.7976 44.6833 34.7097 44.5375 34.6698C44.4181 34.6254 44.289 34.6142 44.1637 34.6374L38.5662 35.8208C36.1113 36.3234 33.5626 36.0905 31.2394 35.1515C30.9098 35.016 30.5857 34.8661 30.2672 34.7019C30.1576 34.6454 30.0354 34.618 29.9121 34.6224C29.7889 34.6268 29.6689 34.6628 29.5636 34.7269C29.4584 34.7911 29.3713 34.8812 29.311 34.9887C29.2506 35.0962 29.2189 35.2174 29.2189 35.3407V38.9345H28.5001C28.258 38.9395 28.0171 38.9701 27.7814 39.0258V32.7891ZM27.0626 41.8095C27.0668 41.4295 27.2196 41.0663 27.4883 40.7976C27.7569 40.5289 28.1202 40.3762 28.5001 40.372H29.2189V43.247H28.5001C28.119 43.2466 27.7536 43.095 27.4841 42.8255C27.2146 42.556 27.0631 42.1906 27.0626 41.8095ZM30.6564 39.6532V36.4658C33.2532 37.5376 36.1123 37.8039 38.8624 37.2302L43.594 36.2279V43.9658C43.594 45.6814 42.9125 47.3268 41.6993 48.5399C40.4862 49.753 38.8408 50.4346 37.1252 50.4346C35.4096 50.4346 33.7642 49.753 32.5511 48.5399C31.3379 47.3268 30.6564 45.6814 30.6564 43.9658V39.6532ZM31.9402 54.2256L36.0057 58.8715L32.2476 61.0187L28.1822 56.3727L31.9402 54.2256ZM18.4376 62.9152C18.4333 61.7764 18.8174 60.6702 19.5264 59.779C20.2354 58.8879 21.2271 58.2651 22.3377 58.0133L26.8054 56.9821L31.5531 62.408C31.6623 62.5328 31.8113 62.6161 31.9749 62.6436C32.1384 62.6711 32.3065 62.6412 32.4505 62.559L33.7227 61.8322L34.9079 64.7952L32.3455 70.5597H24.9064V66.9659C24.9064 66.7753 24.8306 66.5925 24.6958 66.4577C24.561 66.3229 24.3782 66.2472 24.1876 66.2472C23.997 66.2472 23.8142 66.3229 23.6794 66.4577C23.5446 66.5925 23.4688 66.7753 23.4688 66.9659V70.5597H18.4376V62.9152ZM55.8128 70.5597H50.7815V66.9659C50.7815 66.7753 50.7058 66.5925 50.571 66.4577C50.4362 66.3229 50.2534 66.2472 50.0628 66.2472C49.8722 66.2472 49.6893 66.3229 49.5545 66.4577C49.4198 66.5925 49.344 66.7753 49.344 66.9659V70.5597H41.9049L39.3426 64.7953L40.528 61.8322L41.8002 62.559C41.9443 62.6414 42.1124 62.6713 42.276 62.6438C42.4396 62.6163 42.5887 62.533 42.6979 62.4081L47.4456 56.9822L51.9133 58.0134C53.0238 58.2653 54.0152 58.8882 54.7241 59.7793C55.433 60.6704 55.817 61.7766 55.8128 62.9152V70.5597Z" fill="#F5A13F"/>
</g>
<defs>
<clipPath id="clip0_182:1001">
<rect width="55" height="55" fill="white" transform="translate(17 17.0001)"/>
</clipPath>
</defs>
</svg>
