<svg width="90" height="90" viewBox="0 0 90 90" fill="none" xmlns="http://www.w3.org/2000/svg">
<rect y="0.00012207" width="90" height="90" rx="20" fill="#D6BCFF"/>
<path d="M56.75 64.0001C56.75 64.6905 57.3096 65.2501 58 65.2501C58.6904 65.2501 59.25 64.6905 59.25 64.0001L56.75 64.0001ZM58.8839 24.1162C58.3957 23.6281 57.6043 23.6281 57.1161 24.1162L49.1612 32.0712C48.673 32.5593 48.673 33.3508 49.1612 33.839C49.6493 34.3271 50.4408 34.3271 50.9289 33.839L58 26.7679L65.0711 33.839C65.5592 34.3271 66.3507 34.3271 66.8388 33.839C67.327 33.3508 67.327 32.5593 66.8388 32.0712L58.8839 24.1162ZM59.25 64.0001L59.25 25.0001L56.75 25.0001L56.75 64.0001L59.25 64.0001Z" fill="#8E49FF"/>
<path d="M47.9411 61.9625C47.744 61.2973 47.0543 60.9278 46.4014 61.1249L44.3444 61.7531C41.7332 62.566 38.9002 62.3074 36.4737 61.0633C34.1827 59.8808 31.5837 59.4251 29.0217 59.733L25.9916 60.0902C27.6298 57.8115 28.6029 55.1264 28.8246 52.3303L28.8369 52.2318C28.9724 50.4704 28.9971 48.6967 28.8985 46.923H36.9541C37.6315 46.923 38.1858 46.3687 38.1858 45.6913C38.1858 45.0138 37.6315 44.4596 36.9541 44.4596H28.6768C28.4797 42.8214 28.1964 41.1955 27.8023 39.5942C27.3219 37.6235 27.0879 35.8744 27.0879 34.4086C27.0879 33.374 27.285 32.3393 27.6668 31.3663C28.0363 30.4178 28.5906 29.5556 29.305 28.8166C30.0317 28.0652 30.9063 27.474 31.8793 27.0798C32.9263 26.6487 34.0349 26.4393 35.168 26.4517C39.4668 26.4517 42.0657 28.4101 42.8664 32.2654C43.0142 32.9306 43.667 33.3493 44.3321 33.2139C44.9973 33.066 45.4161 32.4255 45.2806 31.7604C44.7632 29.2723 43.6054 27.3385 41.844 25.9959C40.1073 24.6656 37.8532 24.0005 35.1557 24.0005C33.7023 23.9882 32.2612 24.2715 30.9063 24.8258C29.6376 25.3431 28.4797 26.1314 27.519 27.1168C26.5829 28.0775 25.8562 29.223 25.3635 30.4671C24.8708 31.7235 24.6121 33.066 24.6121 34.421C24.6121 36.0838 24.8831 38.0176 25.4004 40.1855C25.7453 41.6019 26.004 43.0308 26.1887 44.4719H18.2317C17.5543 44.4719 17 45.0262 17 45.7036C17 46.3811 17.5543 46.9353 18.2317 46.9353H26.4227C26.5213 48.6351 26.4967 50.3472 26.3735 52.047L26.3612 52.1456C26.1764 54.5474 25.3142 56.8385 23.8977 58.7846L22.3211 60.9401C21.9146 61.4944 22.0378 62.2581 22.5921 62.6646C22.8384 62.8493 23.1587 62.9355 23.4666 62.8986L29.3173 62.1965C31.3866 61.9501 33.4929 62.3197 35.3528 63.2804C38.3582 64.8201 41.844 65.128 45.0712 64.1303L47.1282 63.5021C47.781 63.305 48.1505 62.6153 47.9411 61.9625Z" fill="#8E49FF"/>
</svg>
